<svg xmlns="http://www.w3.org/2000/svg" xmlns:xlink="http://www.w3.org/1999/xlink" width="1135" zoomAndPan="magnify" viewBox="0 0 851.25 142.499996" height="190" preserveAspectRatio="xMidYMid meet" version="1.0"><defs><g/></defs><g fill="#ff4336" fill-opacity="1"><g transform="translate(23.882054, 129.231976)"><g><path d="M 5.859375 0.269531 C 8.433594 0.269531 9.316406 -0.898438 9.722656 -1.949219 L 9.722656 0 L 12.53125 0 L 12.53125 -6.351562 L 6.046875 -6.351562 L 6.046875 -4.285156 L 9.316406 -4.285156 C 9.144531 -3.167969 8.550781 -2.320312 6.722656 -2.320312 C 4.980469 -2.320312 4.132812 -3.402344 4.132812 -5.605469 C 4.132812 -8.027344 5.199219 -8.941406 6.976562 -8.941406 C 8.332031 -8.941406 9.078125 -8.296875 9.164062 -7.605469 L 12.550781 -7.605469 C 12.449219 -9.636719 10.972656 -11.53125 6.925781 -11.53125 C 2.421875 -11.53125 0.59375 -8.855469 0.59375 -5.621094 C 0.59375 -2.457031 2.21875 0.269531 5.859375 0.269531 Z M 5.859375 0.269531 "/></g></g></g><g fill="#ff4336" fill-opacity="1"><g transform="translate(37.36051, 129.231976)"><g><path d="M 7.992188 -9.550781 L 7.484375 -11.5 L 2.472656 -10.128906 L 2.625 -9.382812 Z M 5.351562 -1.914062 C 4.421875 -1.914062 3.878906 -2.320312 3.707031 -3.402344 L 9.941406 -3.402344 C 9.976562 -3.574219 9.992188 -3.84375 9.992188 -4.132812 C 9.992188 -6.46875 8.992188 -8.738281 5.285156 -8.738281 C 1.914062 -8.738281 0.472656 -6.691406 0.472656 -4.25 C 0.472656 -1.980469 1.695312 0.269531 5.285156 0.269531 C 8.398438 0.269531 9.636719 -1 9.957031 -2.558594 L 6.707031 -2.558594 C 6.46875 -2.167969 5.996094 -1.914062 5.351562 -1.914062 Z M 5.335938 -6.605469 C 6.332031 -6.605469 6.757812 -6.113281 6.859375 -5.234375 L 3.726562 -5.234375 C 3.914062 -6.25 4.402344 -6.605469 5.335938 -6.605469 Z M 5.335938 -6.605469 "/></g></g></g><g fill="#ff4336" fill-opacity="1"><g transform="translate(47.824936, 129.231976)"><g><path d="M 5.488281 0.269531 C 9.296875 0.269531 10.5 -2.03125 10.5 -4.234375 C 10.5 -6.433594 9.296875 -8.738281 5.488281 -8.738281 C 1.675781 -8.738281 0.472656 -6.433594 0.472656 -4.234375 C 0.472656 -2.015625 1.675781 0.269531 5.488281 0.269531 Z M 3.792969 -4.234375 C 3.792969 -5.742188 4.25 -6.164062 5.488281 -6.164062 C 6.722656 -6.164062 7.179688 -5.742188 7.179688 -4.234375 C 7.179688 -2.726562 6.722656 -2.304688 5.488281 -2.304688 C 4.25 -2.304688 3.792969 -2.726562 3.792969 -4.234375 Z M 3.792969 -4.234375 "/></g></g></g><g fill="#ff4336" fill-opacity="1"><g transform="translate(58.797346, 129.231976)"><g><path d="M 0.761719 0 L 4.082031 0 L 4.082031 -11.855469 L 0.761719 -11.855469 Z M 0.761719 0 "/></g></g></g><g fill="#ff4336" fill-opacity="1"><g transform="translate(63.640109, 129.231976)"><g><path d="M 5.488281 0.269531 C 9.296875 0.269531 10.5 -2.03125 10.5 -4.234375 C 10.5 -6.433594 9.296875 -8.738281 5.488281 -8.738281 C 1.675781 -8.738281 0.472656 -6.433594 0.472656 -4.234375 C 0.472656 -2.015625 1.675781 0.269531 5.488281 0.269531 Z M 3.792969 -4.234375 C 3.792969 -5.742188 4.25 -6.164062 5.488281 -6.164062 C 6.722656 -6.164062 7.179688 -5.742188 7.179688 -4.234375 C 7.179688 -2.726562 6.722656 -2.304688 5.488281 -2.304688 C 4.25 -2.304688 3.792969 -2.726562 3.792969 -4.234375 Z M 3.792969 -4.234375 "/></g></g></g><g fill="#ff4336" fill-opacity="1"><g transform="translate(74.612519, 129.231976)"><g><path d="M 0.472656 -4.234375 C 0.472656 -2.015625 1.746094 0.269531 5.46875 0.269531 C 8.773438 0.269531 10.195312 -1.625 10.246094 -3.691406 L 6.960938 -3.691406 C 6.894531 -2.863281 6.453125 -2.304688 5.402344 -2.304688 C 4.335938 -2.304688 3.792969 -2.761719 3.792969 -4.234375 C 3.792969 -5.707031 4.386719 -6.164062 5.453125 -6.164062 C 6.417969 -6.164062 6.894531 -5.707031 6.945312 -4.757812 L 10.230469 -4.757812 C 10.179688 -6.925781 8.636719 -8.738281 5.417969 -8.738281 C 1.695312 -8.738281 0.472656 -6.433594 0.472656 -4.234375 Z M 0.472656 -4.234375 "/></g></g></g><g fill="#ff4336" fill-opacity="1"><g transform="translate(85.280143, 129.231976)"><g><path d="M 3.351562 0.21875 C 5.03125 0.21875 6.128906 -0.421875 6.570312 -1.710938 C 6.570312 -1 6.640625 -0.441406 6.722656 0 L 9.550781 0 C 9.449219 -0.660156 9.382812 -1.492188 9.382812 -2.472656 L 9.382812 -5.570312 C 9.382812 -7.621094 8.011719 -8.738281 5.214844 -8.738281 C 2.457031 -8.738281 0.8125 -7.402344 0.710938 -5.589844 L 3.914062 -5.589844 C 3.914062 -6.230469 4.335938 -6.589844 5.234375 -6.589844 C 6.046875 -6.589844 6.316406 -6.351562 6.316406 -5.925781 C 6.316406 -5.539062 6.164062 -5.351562 5.402344 -5.214844 L 3.539062 -4.894531 C 1.066406 -4.472656 0.542969 -3.574219 0.542969 -2.21875 C 0.542969 -0.746094 1.675781 0.21875 3.351562 0.21875 Z M 4.707031 -1.878906 C 4.21875 -1.878906 3.792969 -2.132812 3.792969 -2.660156 C 3.792969 -3.167969 4.046875 -3.402344 4.792969 -3.605469 L 5.046875 -3.675781 C 5.589844 -3.808594 5.910156 -3.894531 6.316406 -4.183594 L 6.316406 -3.929688 C 6.316406 -2.472656 5.570312 -1.878906 4.707031 -1.878906 Z M 4.707031 -1.878906 "/></g></g></g><g fill="#ff4336" fill-opacity="1"><g transform="translate(95.473654, 129.231976)"><g><path d="M 0.761719 0 L 4.082031 0 L 4.082031 -11.855469 L 0.761719 -11.855469 Z M 0.761719 0 "/></g></g></g><g fill="#ff4336" fill-opacity="1"><g transform="translate(100.316418, 129.231976)"><g><path d="M 0.761719 -9.417969 L 4.082031 -9.417969 L 4.082031 -11.261719 L 0.761719 -11.261719 Z M 0.761719 0 L 4.082031 0 L 4.082031 -8.46875 L 0.761719 -8.46875 Z M 0.761719 0 "/></g></g></g><g fill="#ff4336" fill-opacity="1"><g transform="translate(105.159182, 129.231976)"><g><path d="M 0.304688 -2.691406 C 0.390625 -1.183594 1.542969 0.269531 4.757812 0.269531 C 8.128906 0.269531 9.09375 -1.117188 9.09375 -2.691406 C 9.09375 -4.421875 8.164062 -5.183594 6.214844 -5.351562 L 4.488281 -5.488281 C 3.726562 -5.554688 3.539062 -5.824219 3.539062 -6.148438 C 3.539062 -6.554688 3.878906 -6.84375 4.742188 -6.84375 C 5.554688 -6.84375 5.960938 -6.539062 6.046875 -5.925781 L 8.992188 -5.925781 C 8.804688 -8.042969 7.097656 -8.738281 4.707031 -8.738281 C 2.421875 -8.738281 0.542969 -7.976562 0.542969 -5.824219 C 0.542969 -4.285156 1.457031 -3.386719 3.167969 -3.21875 L 4.859375 -3.046875 C 5.859375 -2.945312 5.945312 -2.589844 5.945312 -2.269531 C 5.945312 -1.863281 5.554688 -1.625 4.792969 -1.625 C 3.894531 -1.625 3.371094 -2.101562 3.300781 -2.691406 Z M 0.304688 -2.691406 "/></g></g></g><g fill="#ff4336" fill-opacity="1"><g transform="translate(114.624577, 129.231976)"><g><path d="M 3.351562 0.21875 C 5.03125 0.21875 6.128906 -0.421875 6.570312 -1.710938 C 6.570312 -1 6.640625 -0.441406 6.722656 0 L 9.550781 0 C 9.449219 -0.660156 9.382812 -1.492188 9.382812 -2.472656 L 9.382812 -5.570312 C 9.382812 -7.621094 8.011719 -8.738281 5.214844 -8.738281 C 2.457031 -8.738281 0.8125 -7.402344 0.710938 -5.589844 L 3.914062 -5.589844 C 3.914062 -6.230469 4.335938 -6.589844 5.234375 -6.589844 C 6.046875 -6.589844 6.316406 -6.351562 6.316406 -5.925781 C 6.316406 -5.539062 6.164062 -5.351562 5.402344 -5.214844 L 3.539062 -4.894531 C 1.066406 -4.472656 0.542969 -3.574219 0.542969 -2.21875 C 0.542969 -0.746094 1.675781 0.21875 3.351562 0.21875 Z M 4.707031 -1.878906 C 4.21875 -1.878906 3.792969 -2.132812 3.792969 -2.660156 C 3.792969 -3.167969 4.046875 -3.402344 4.792969 -3.605469 L 5.046875 -3.675781 C 5.589844 -3.808594 5.910156 -3.894531 6.316406 -4.183594 L 6.316406 -3.929688 C 6.316406 -2.472656 5.570312 -1.878906 4.707031 -1.878906 Z M 4.707031 -1.878906 "/></g></g></g><g fill="#ff4336" fill-opacity="1"><g transform="translate(124.818089, 129.231976)"><g><path d="M 5.214844 0 L 6.722656 0 L 6.722656 -2.625 L 4.859375 -2.625 L 4.859375 -5.976562 L 7.027344 -5.976562 L 7.027344 -8.46875 L 4.859375 -8.46875 L 4.859375 -10.566406 L 3.167969 -10.566406 L 1.796875 -8.316406 L 0.0859375 -7.503906 L 0.0859375 -5.976562 L 1.542969 -5.976562 L 1.542969 -3.605469 C 1.542969 -1.269531 2.457031 0 5.214844 0 Z M 5.214844 0 "/></g></g></g><g fill="#ff4336" fill-opacity="1"><g transform="translate(132.268497, 129.231976)"><g><path d="M 0.761719 -9.417969 L 4.082031 -9.417969 L 4.082031 -11.261719 L 0.761719 -11.261719 Z M 0.761719 0 L 4.082031 0 L 4.082031 -8.46875 L 0.761719 -8.46875 Z M 0.761719 0 "/></g></g></g><g fill="#ff4336" fill-opacity="1"><g transform="translate(137.111261, 129.231976)"><g><path d="M 5.488281 0.269531 C 9.296875 0.269531 10.5 -2.03125 10.5 -4.234375 C 10.5 -6.433594 9.296875 -8.738281 5.488281 -8.738281 C 1.675781 -8.738281 0.472656 -6.433594 0.472656 -4.234375 C 0.472656 -2.015625 1.675781 0.269531 5.488281 0.269531 Z M 3.792969 -4.234375 C 3.792969 -5.742188 4.25 -6.164062 5.488281 -6.164062 C 6.722656 -6.164062 7.179688 -5.742188 7.179688 -4.234375 C 7.179688 -2.726562 6.722656 -2.304688 5.488281 -2.304688 C 4.25 -2.304688 3.792969 -2.726562 3.792969 -4.234375 Z M 3.792969 -4.234375 "/></g></g></g><g fill="#ff4336" fill-opacity="1"><g transform="translate(148.083671, 129.231976)"><g><path d="M 7.113281 -8.738281 C 5.640625 -8.738281 4.65625 -8.078125 4.082031 -7.011719 L 4.082031 -8.46875 L 0.761719 -8.46875 L 0.761719 0 L 4.082031 0 L 4.082031 -4.117188 C 4.082031 -5.4375 4.675781 -6.0625 5.671875 -6.0625 C 6.671875 -6.0625 7.011719 -5.402344 7.011719 -4.488281 L 7.011719 0 L 10.332031 0 L 10.332031 -5.097656 C 10.332031 -7.316406 9.316406 -8.738281 7.113281 -8.738281 Z M 7.113281 -8.738281 "/></g></g></g><g fill="#ff4336" fill-opacity="1"><g transform="translate(159.134039, 129.231976)"><g/></g></g><g fill="#ff4336" fill-opacity="1"><g transform="translate(349.672679, 129.231976)"><g><path d="M 7.484375 -11.261719 L 0.847656 -11.261719 L 0.847656 0 L 4.285156 0 L 4.285156 -3.421875 L 7.484375 -3.421875 C 10.09375 -3.421875 11.144531 -5.113281 11.144531 -7.433594 C 11.144531 -9.570312 10.09375 -11.261719 7.484375 -11.261719 Z M 6.28125 -6.011719 L 4.285156 -6.011719 L 4.285156 -8.671875 L 6.332031 -8.671875 C 7.230469 -8.671875 7.605469 -8.164062 7.605469 -7.402344 C 7.605469 -6.605469 7.199219 -6.011719 6.28125 -6.011719 Z M 6.28125 -6.011719 "/></g></g></g><g fill="#ff4336" fill-opacity="1"><g transform="translate(361.153071, 129.231976)"><g><path d="M 0.761719 0 L 4.082031 0 L 4.082031 -11.855469 L 0.761719 -11.855469 Z M 0.761719 0 "/></g></g></g><g fill="#ff4336" fill-opacity="1"><g transform="translate(365.995835, 129.231976)"><g><path d="M 3.351562 0.21875 C 5.03125 0.21875 6.128906 -0.421875 6.570312 -1.710938 C 6.570312 -1 6.640625 -0.441406 6.722656 0 L 9.550781 0 C 9.449219 -0.660156 9.382812 -1.492188 9.382812 -2.472656 L 9.382812 -5.570312 C 9.382812 -7.621094 8.011719 -8.738281 5.214844 -8.738281 C 2.457031 -8.738281 0.8125 -7.402344 0.710938 -5.589844 L 3.914062 -5.589844 C 3.914062 -6.230469 4.335938 -6.589844 5.234375 -6.589844 C 6.046875 -6.589844 6.316406 -6.351562 6.316406 -5.925781 C 6.316406 -5.539062 6.164062 -5.351562 5.402344 -5.214844 L 3.539062 -4.894531 C 1.066406 -4.472656 0.542969 -3.574219 0.542969 -2.21875 C 0.542969 -0.746094 1.675781 0.21875 3.351562 0.21875 Z M 4.707031 -1.878906 C 4.21875 -1.878906 3.792969 -2.132812 3.792969 -2.660156 C 3.792969 -3.167969 4.046875 -3.402344 4.792969 -3.605469 L 5.046875 -3.675781 C 5.589844 -3.808594 5.910156 -3.894531 6.316406 -4.183594 L 6.316406 -3.929688 C 6.316406 -2.472656 5.570312 -1.878906 4.707031 -1.878906 Z M 4.707031 -1.878906 "/></g></g></g><g fill="#ff4336" fill-opacity="1"><g transform="translate(376.189346, 129.231976)"><g><path d="M 7.097656 -8.46875 L 5.792969 -3.929688 L 5.316406 -2.183594 L 4.792969 -3.929688 L 3.351562 -8.46875 L -0.015625 -8.46875 L 2.574219 -0.304688 L 4.828125 -0.304688 L 4.523438 0.761719 L 0.492188 0.761719 L 0.492188 3.386719 L 3.269531 3.386719 C 6.113281 3.386719 7.148438 2.101562 7.824219 -0.238281 L 10.230469 -8.46875 Z M 7.097656 -8.46875 "/></g></g></g><g fill="#ff4336" fill-opacity="1"><g transform="translate(386.348988, 129.231976)"><g><path d="M 5.351562 -1.914062 C 4.421875 -1.914062 3.878906 -2.320312 3.707031 -3.402344 L 9.941406 -3.402344 C 9.976562 -3.574219 9.992188 -3.84375 9.992188 -4.132812 C 9.992188 -6.46875 8.992188 -8.738281 5.285156 -8.738281 C 1.914062 -8.738281 0.472656 -6.691406 0.472656 -4.25 C 0.472656 -1.980469 1.695312 0.269531 5.285156 0.269531 C 8.398438 0.269531 9.636719 -1 9.957031 -2.558594 L 6.707031 -2.558594 C 6.46875 -2.167969 5.996094 -1.914062 5.351562 -1.914062 Z M 5.335938 -6.605469 C 6.332031 -6.605469 6.757812 -6.113281 6.859375 -5.234375 L 3.726562 -5.234375 C 3.914062 -6.25 4.402344 -6.605469 5.335938 -6.605469 Z M 5.335938 -6.605469 "/></g></g></g><g fill="#ff4336" fill-opacity="1"><g transform="translate(396.813414, 129.231976)"><g><path d="M 6.164062 -8.601562 C 4.859375 -8.601562 4.25 -8.027344 3.964844 -6.824219 L 3.964844 -8.46875 L 0.761719 -8.46875 L 0.761719 0 L 4.082031 0 L 4.082031 -3.4375 C 4.082031 -4.945312 4.691406 -5.367188 5.792969 -5.367188 L 7.027344 -5.367188 L 7.027344 -8.601562 Z M 6.164062 -8.601562 "/></g></g></g><g fill="#ff4336" fill-opacity="1"><g transform="translate(404.07756, 129.231976)"><g><path d="M 0.304688 -2.691406 C 0.390625 -1.183594 1.542969 0.269531 4.757812 0.269531 C 8.128906 0.269531 9.09375 -1.117188 9.09375 -2.691406 C 9.09375 -4.421875 8.164062 -5.183594 6.214844 -5.351562 L 4.488281 -5.488281 C 3.726562 -5.554688 3.539062 -5.824219 3.539062 -6.148438 C 3.539062 -6.554688 3.878906 -6.84375 4.742188 -6.84375 C 5.554688 -6.84375 5.960938 -6.539062 6.046875 -5.925781 L 8.992188 -5.925781 C 8.804688 -8.042969 7.097656 -8.738281 4.707031 -8.738281 C 2.421875 -8.738281 0.542969 -7.976562 0.542969 -5.824219 C 0.542969 -4.285156 1.457031 -3.386719 3.167969 -3.21875 L 4.859375 -3.046875 C 5.859375 -2.945312 5.945312 -2.589844 5.945312 -2.269531 C 5.945312 -1.863281 5.554688 -1.625 4.792969 -1.625 C 3.894531 -1.625 3.371094 -2.101562 3.300781 -2.691406 Z M 0.304688 -2.691406 "/></g></g></g><g fill="#ff4336" fill-opacity="1"><g transform="translate(413.542955, 129.231976)"><g><path d="M 6.671875 0.269531 C 10.921875 0.269531 12.464844 -1.066406 12.753906 -4.726562 L 9.230469 -4.726562 C 9.113281 -3.199219 8.535156 -2.488281 6.65625 -2.488281 C 4.828125 -2.488281 4.132812 -3.539062 4.132812 -5.605469 C 4.132812 -7.722656 4.910156 -8.773438 6.757812 -8.773438 C 8.585938 -8.773438 9.09375 -7.976562 9.195312 -6.589844 L 12.683594 -6.589844 C 12.449219 -9.957031 10.839844 -11.53125 6.671875 -11.53125 C 2.183594 -11.53125 0.59375 -8.535156 0.59375 -5.605469 C 0.59375 -2.609375 2.183594 0.269531 6.671875 0.269531 Z M 6.671875 0.269531 "/></g></g></g><g fill="#ff4336" fill-opacity="1"><g transform="translate(426.801289, 129.231976)"><g><path d="M 6.960938 -8.46875 L 6.960938 -4.351562 C 6.960938 -3.03125 6.367188 -2.40625 5.367188 -2.40625 C 4.371094 -2.40625 4.03125 -3.066406 4.03125 -3.980469 L 4.03125 -8.46875 L 0.710938 -8.46875 L 0.710938 -3.371094 C 0.710938 -1.152344 1.761719 0.269531 3.964844 0.269531 C 5.417969 0.269531 6.402344 -0.371094 6.960938 -1.441406 L 6.960938 0 L 10.28125 0 L 10.28125 -8.46875 Z M 6.960938 -8.46875 "/></g></g></g><g fill="#ff4336" fill-opacity="1"><g transform="translate(437.841438, 129.231976)"><g><path d="M 6.960938 -8.738281 C 5.570312 -8.738281 4.640625 -8.246094 4.046875 -7.417969 L 4.046875 -8.46875 L 0.726562 -8.46875 L 0.726562 3.386719 L 4.046875 3.386719 L 4.046875 -1.066406 C 4.640625 -0.238281 5.570312 0.269531 6.960938 0.269531 C 9.773438 0.269531 10.820312 -1.898438 10.820312 -4.21875 C 10.820312 -6.621094 9.773438 -8.738281 6.960938 -8.738281 Z M 5.773438 -2.304688 C 4.386719 -2.304688 4.046875 -2.945312 4.046875 -4.234375 C 4.046875 -5.519531 4.386719 -6.164062 5.773438 -6.164062 C 7.078125 -6.164062 7.503906 -5.640625 7.503906 -4.234375 C 7.503906 -2.828125 7.078125 -2.304688 5.773438 -2.304688 Z M 5.773438 -2.304688 "/></g></g></g><g fill="#ff4336" fill-opacity="1"><g transform="translate(449.10171, 129.231976)"><g/></g></g><g fill="#ff4336" fill-opacity="1"><g transform="translate(453.504219, 129.231976)"><g/></g></g><g fill="#ff4336" fill-opacity="1"><g transform="translate(618.63594, 129.231976)"><g><path d="M 5.859375 0.269531 C 8.433594 0.269531 9.316406 -0.898438 9.722656 -1.949219 L 9.722656 0 L 12.53125 0 L 12.53125 -6.351562 L 6.046875 -6.351562 L 6.046875 -4.285156 L 9.316406 -4.285156 C 9.144531 -3.167969 8.550781 -2.320312 6.722656 -2.320312 C 4.980469 -2.320312 4.132812 -3.402344 4.132812 -5.605469 C 4.132812 -8.027344 5.199219 -8.941406 6.976562 -8.941406 C 8.332031 -8.941406 9.078125 -8.296875 9.164062 -7.605469 L 12.550781 -7.605469 C 12.449219 -9.636719 10.972656 -11.53125 6.925781 -11.53125 C 2.421875 -11.53125 0.59375 -8.855469 0.59375 -5.621094 C 0.59375 -2.457031 2.21875 0.269531 5.859375 0.269531 Z M 5.859375 0.269531 "/></g></g></g><g fill="#ff4336" fill-opacity="1"><g transform="translate(632.114396, 129.231976)"><g><path d="M 6.164062 -8.601562 C 4.859375 -8.601562 4.25 -8.027344 3.964844 -6.824219 L 3.964844 -8.46875 L 0.761719 -8.46875 L 0.761719 0 L 4.082031 0 L 4.082031 -3.4375 C 4.082031 -4.945312 4.691406 -5.367188 5.792969 -5.367188 L 7.027344 -5.367188 L 7.027344 -8.601562 Z M 6.164062 -8.601562 "/></g></g></g><g fill="#ff4336" fill-opacity="1"><g transform="translate(639.378542, 129.231976)"><g><path d="M 3.351562 0.21875 C 5.03125 0.21875 6.128906 -0.421875 6.570312 -1.710938 C 6.570312 -1 6.640625 -0.441406 6.722656 0 L 9.550781 0 C 9.449219 -0.660156 9.382812 -1.492188 9.382812 -2.472656 L 9.382812 -5.570312 C 9.382812 -7.621094 8.011719 -8.738281 5.214844 -8.738281 C 2.457031 -8.738281 0.8125 -7.402344 0.710938 -5.589844 L 3.914062 -5.589844 C 3.914062 -6.230469 4.335938 -6.589844 5.234375 -6.589844 C 6.046875 -6.589844 6.316406 -6.351562 6.316406 -5.925781 C 6.316406 -5.539062 6.164062 -5.351562 5.402344 -5.214844 L 3.539062 -4.894531 C 1.066406 -4.472656 0.542969 -3.574219 0.542969 -2.21875 C 0.542969 -0.746094 1.675781 0.21875 3.351562 0.21875 Z M 4.707031 -1.878906 C 4.21875 -1.878906 3.792969 -2.132812 3.792969 -2.660156 C 3.792969 -3.167969 4.046875 -3.402344 4.792969 -3.605469 L 5.046875 -3.675781 C 5.589844 -3.808594 5.910156 -3.894531 6.316406 -4.183594 L 6.316406 -3.929688 C 6.316406 -2.472656 5.570312 -1.878906 4.707031 -1.878906 Z M 4.707031 -1.878906 "/></g></g></g><g fill="#ff4336" fill-opacity="1"><g transform="translate(649.572053, 129.231976)"><g><path d="M 5.214844 0 L 6.722656 0 L 6.722656 -2.625 L 4.859375 -2.625 L 4.859375 -5.976562 L 7.027344 -5.976562 L 7.027344 -8.46875 L 4.859375 -8.46875 L 4.859375 -10.566406 L 3.167969 -10.566406 L 1.796875 -8.316406 L 0.0859375 -7.503906 L 0.0859375 -5.976562 L 1.542969 -5.976562 L 1.542969 -3.605469 C 1.542969 -1.269531 2.457031 0 5.214844 0 Z M 5.214844 0 "/></g></g></g><g fill="#ff4336" fill-opacity="1"><g transform="translate(657.022461, 129.231976)"><g><path d="M 6.960938 -8.46875 L 6.960938 -4.351562 C 6.960938 -3.03125 6.367188 -2.40625 5.367188 -2.40625 C 4.371094 -2.40625 4.03125 -3.066406 4.03125 -3.980469 L 4.03125 -8.46875 L 0.710938 -8.46875 L 0.710938 -3.371094 C 0.710938 -1.152344 1.761719 0.269531 3.964844 0.269531 C 5.417969 0.269531 6.402344 -0.371094 6.960938 -1.441406 L 6.960938 0 L 10.28125 0 L 10.28125 -8.46875 Z M 6.960938 -8.46875 "/></g></g></g><g fill="#ff4336" fill-opacity="1"><g transform="translate(668.062611, 129.231976)"><g><path d="M 0.761719 -9.417969 L 4.082031 -9.417969 L 4.082031 -11.261719 L 0.761719 -11.261719 Z M 0.761719 0 L 4.082031 0 L 4.082031 -8.46875 L 0.761719 -8.46875 Z M 0.761719 0 "/></g></g></g><g fill="#ff4336" fill-opacity="1"><g transform="translate(672.905375, 129.231976)"><g><path d="M 5.214844 0 L 6.722656 0 L 6.722656 -2.625 L 4.859375 -2.625 L 4.859375 -5.976562 L 7.027344 -5.976562 L 7.027344 -8.46875 L 4.859375 -8.46875 L 4.859375 -10.566406 L 3.167969 -10.566406 L 1.796875 -8.316406 L 0.0859375 -7.503906 L 0.0859375 -5.976562 L 1.542969 -5.976562 L 1.542969 -3.605469 C 1.542969 -1.269531 2.457031 0 5.214844 0 Z M 5.214844 0 "/></g></g></g><g fill="#ff4336" fill-opacity="1"><g transform="translate(680.355784, 129.231976)"><g/></g></g><g fill="#ff4336" fill-opacity="1"><g transform="translate(684.758293, 129.231976)"><g><path d="M 5.351562 -1.914062 C 4.421875 -1.914062 3.878906 -2.320312 3.707031 -3.402344 L 9.941406 -3.402344 C 9.976562 -3.574219 9.992188 -3.84375 9.992188 -4.132812 C 9.992188 -6.46875 8.992188 -8.738281 5.285156 -8.738281 C 1.914062 -8.738281 0.472656 -6.691406 0.472656 -4.25 C 0.472656 -1.980469 1.695312 0.269531 5.285156 0.269531 C 8.398438 0.269531 9.636719 -1 9.957031 -2.558594 L 6.707031 -2.558594 C 6.46875 -2.167969 5.996094 -1.914062 5.351562 -1.914062 Z M 5.335938 -6.605469 C 6.332031 -6.605469 6.757812 -6.113281 6.859375 -5.234375 L 3.726562 -5.234375 C 3.914062 -6.25 4.402344 -6.605469 5.335938 -6.605469 Z M 5.335938 -6.605469 "/></g></g></g><g fill="#ff4336" fill-opacity="1"><g transform="translate(695.22272, 129.231976)"><g><path d="M 5.214844 0 L 6.722656 0 L 6.722656 -2.625 L 4.859375 -2.625 L 4.859375 -5.976562 L 7.027344 -5.976562 L 7.027344 -8.46875 L 4.859375 -8.46875 L 4.859375 -10.566406 L 3.167969 -10.566406 L 1.796875 -8.316406 L 0.0859375 -7.503906 L 0.0859375 -5.976562 L 1.542969 -5.976562 L 1.542969 -3.605469 C 1.542969 -1.269531 2.457031 0 5.214844 0 Z M 5.214844 0 "/></g></g></g><g fill="#ff4336" fill-opacity="1"><g transform="translate(702.673129, 129.231976)"><g/></g></g><g fill="#ff4336" fill-opacity="1"><g transform="translate(707.075638, 129.231976)"><g><path d="M 6.960938 -8.738281 C 5.570312 -8.738281 4.640625 -8.246094 4.046875 -7.417969 L 4.046875 -8.46875 L 0.726562 -8.46875 L 0.726562 3.386719 L 4.046875 3.386719 L 4.046875 -1.066406 C 4.640625 -0.238281 5.570312 0.269531 6.960938 0.269531 C 9.773438 0.269531 10.820312 -1.898438 10.820312 -4.21875 C 10.820312 -6.621094 9.773438 -8.738281 6.960938 -8.738281 Z M 5.773438 -2.304688 C 4.386719 -2.304688 4.046875 -2.945312 4.046875 -4.234375 C 4.046875 -5.519531 4.386719 -6.164062 5.773438 -6.164062 C 7.078125 -6.164062 7.503906 -5.640625 7.503906 -4.234375 C 7.503906 -2.828125 7.078125 -2.304688 5.773438 -2.304688 Z M 5.773438 -2.304688 "/></g></g></g><g fill="#ff4336" fill-opacity="1"><g transform="translate(718.335909, 129.231976)"><g><path d="M 5.488281 0.269531 C 9.296875 0.269531 10.5 -2.03125 10.5 -4.234375 C 10.5 -6.433594 9.296875 -8.738281 5.488281 -8.738281 C 1.675781 -8.738281 0.472656 -6.433594 0.472656 -4.234375 C 0.472656 -2.015625 1.675781 0.269531 5.488281 0.269531 Z M 3.792969 -4.234375 C 3.792969 -5.742188 4.25 -6.164062 5.488281 -6.164062 C 6.722656 -6.164062 7.179688 -5.742188 7.179688 -4.234375 C 7.179688 -2.726562 6.722656 -2.304688 5.488281 -2.304688 C 4.25 -2.304688 3.792969 -2.726562 3.792969 -4.234375 Z M 3.792969 -4.234375 "/></g></g></g><g fill="#ff4336" fill-opacity="1"><g transform="translate(729.308319, 129.231976)"><g><path d="M 6.960938 -8.46875 L 6.960938 -4.351562 C 6.960938 -3.03125 6.367188 -2.40625 5.367188 -2.40625 C 4.371094 -2.40625 4.03125 -3.066406 4.03125 -3.980469 L 4.03125 -8.46875 L 0.710938 -8.46875 L 0.710938 -3.371094 C 0.710938 -1.152344 1.761719 0.269531 3.964844 0.269531 C 5.417969 0.269531 6.402344 -0.371094 6.960938 -1.441406 L 6.960938 0 L 10.28125 0 L 10.28125 -8.46875 Z M 6.960938 -8.46875 "/></g></g></g><g fill="#ff4336" fill-opacity="1"><g transform="translate(740.348469, 129.231976)"><g><path d="M 6.164062 -8.601562 C 4.859375 -8.601562 4.25 -8.027344 3.964844 -6.824219 L 3.964844 -8.46875 L 0.761719 -8.46875 L 0.761719 0 L 4.082031 0 L 4.082031 -3.4375 C 4.082031 -4.945312 4.691406 -5.367188 5.792969 -5.367188 L 7.027344 -5.367188 L 7.027344 -8.601562 Z M 6.164062 -8.601562 "/></g></g></g><g fill="#ff4336" fill-opacity="1"><g transform="translate(747.612615, 129.231976)"><g/></g></g><g fill="#ff4336" fill-opacity="1"><g transform="translate(752.015124, 129.231976)"><g><path d="M 5.214844 0 L 6.722656 0 L 6.722656 -2.625 L 4.859375 -2.625 L 4.859375 -5.976562 L 7.027344 -5.976562 L 7.027344 -8.46875 L 4.859375 -8.46875 L 4.859375 -10.566406 L 3.167969 -10.566406 L 1.796875 -8.316406 L 0.0859375 -7.503906 L 0.0859375 -5.976562 L 1.542969 -5.976562 L 1.542969 -3.605469 C 1.542969 -1.269531 2.457031 0 5.214844 0 Z M 5.214844 0 "/></g></g></g><g fill="#ff4336" fill-opacity="1"><g transform="translate(759.465533, 129.231976)"><g><path d="M 5.488281 0.269531 C 9.296875 0.269531 10.5 -2.03125 10.5 -4.234375 C 10.5 -6.433594 9.296875 -8.738281 5.488281 -8.738281 C 1.675781 -8.738281 0.472656 -6.433594 0.472656 -4.234375 C 0.472656 -2.015625 1.675781 0.269531 5.488281 0.269531 Z M 3.792969 -4.234375 C 3.792969 -5.742188 4.25 -6.164062 5.488281 -6.164062 C 6.722656 -6.164062 7.179688 -5.742188 7.179688 -4.234375 C 7.179688 -2.726562 6.722656 -2.304688 5.488281 -2.304688 C 4.25 -2.304688 3.792969 -2.726562 3.792969 -4.234375 Z M 3.792969 -4.234375 "/></g></g></g><g fill="#ff4336" fill-opacity="1"><g transform="translate(770.437942, 129.231976)"><g><path d="M 6.960938 -8.46875 L 6.960938 -4.351562 C 6.960938 -3.03125 6.367188 -2.40625 5.367188 -2.40625 C 4.371094 -2.40625 4.03125 -3.066406 4.03125 -3.980469 L 4.03125 -8.46875 L 0.710938 -8.46875 L 0.710938 -3.371094 C 0.710938 -1.152344 1.761719 0.269531 3.964844 0.269531 C 5.417969 0.269531 6.402344 -0.371094 6.960938 -1.441406 L 6.960938 0 L 10.28125 0 L 10.28125 -8.46875 Z M 6.960938 -8.46875 "/></g></g></g><g fill="#ff4336" fill-opacity="1"><g transform="translate(781.478092, 129.231976)"><g><path d="M 0.929688 -9.417969 L 4.25 -9.417969 L 4.25 -11.261719 L 0.929688 -11.261719 Z M -1.609375 3.386719 L 0.574219 3.386719 C 3.335938 3.386719 4.25 2.117188 4.25 -0.21875 L 4.25 -8.46875 L 0.929688 -8.46875 L 0.929688 0.761719 L -1.609375 0.761719 Z M -1.609375 3.386719 "/></g></g></g><g fill="#ff4336" fill-opacity="1"><g transform="translate(786.490184, 129.231976)"><g><path d="M 5.488281 0.269531 C 9.296875 0.269531 10.5 -2.03125 10.5 -4.234375 C 10.5 -6.433594 9.296875 -8.738281 5.488281 -8.738281 C 1.675781 -8.738281 0.472656 -6.433594 0.472656 -4.234375 C 0.472656 -2.015625 1.675781 0.269531 5.488281 0.269531 Z M 3.792969 -4.234375 C 3.792969 -5.742188 4.25 -6.164062 5.488281 -6.164062 C 6.722656 -6.164062 7.179688 -5.742188 7.179688 -4.234375 C 7.179688 -2.726562 6.722656 -2.304688 5.488281 -2.304688 C 4.25 -2.304688 3.792969 -2.726562 3.792969 -4.234375 Z M 3.792969 -4.234375 "/></g></g></g><g fill="#ff4336" fill-opacity="1"><g transform="translate(797.462594, 129.231976)"><g><path d="M 6.960938 -8.46875 L 6.960938 -4.351562 C 6.960938 -3.03125 6.367188 -2.40625 5.367188 -2.40625 C 4.371094 -2.40625 4.03125 -3.066406 4.03125 -3.980469 L 4.03125 -8.46875 L 0.710938 -8.46875 L 0.710938 -3.371094 C 0.710938 -1.152344 1.761719 0.269531 3.964844 0.269531 C 5.417969 0.269531 6.402344 -0.371094 6.960938 -1.441406 L 6.960938 0 L 10.28125 0 L 10.28125 -8.46875 Z M 6.960938 -8.46875 "/></g></g></g><g fill="#ff4336" fill-opacity="1"><g transform="translate(808.502743, 129.231976)"><g><path d="M 6.164062 -8.601562 C 4.859375 -8.601562 4.25 -8.027344 3.964844 -6.824219 L 3.964844 -8.46875 L 0.761719 -8.46875 L 0.761719 0 L 4.082031 0 L 4.082031 -3.4375 C 4.082031 -4.945312 4.691406 -5.367188 5.792969 -5.367188 L 7.027344 -5.367188 L 7.027344 -8.601562 Z M 6.164062 -8.601562 "/></g></g></g><g fill="#ff4336" fill-opacity="1"><g transform="translate(815.766901, 129.231976)"><g><path d="M 0.304688 -2.691406 C 0.390625 -1.183594 1.542969 0.269531 4.757812 0.269531 C 8.128906 0.269531 9.09375 -1.117188 9.09375 -2.691406 C 9.09375 -4.421875 8.164062 -5.183594 6.214844 -5.351562 L 4.488281 -5.488281 C 3.726562 -5.554688 3.539062 -5.824219 3.539062 -6.148438 C 3.539062 -6.554688 3.878906 -6.84375 4.742188 -6.84375 C 5.554688 -6.84375 5.960938 -6.539062 6.046875 -5.925781 L 8.992188 -5.925781 C 8.804688 -8.042969 7.097656 -8.738281 4.707031 -8.738281 C 2.421875 -8.738281 0.542969 -7.976562 0.542969 -5.824219 C 0.542969 -4.285156 1.457031 -3.386719 3.167969 -3.21875 L 4.859375 -3.046875 C 5.859375 -2.945312 5.945312 -2.589844 5.945312 -2.269531 C 5.945312 -1.863281 5.554688 -1.625 4.792969 -1.625 C 3.894531 -1.625 3.371094 -2.101562 3.300781 -2.691406 Z M 0.304688 -2.691406 "/></g></g></g><g fill="#ff4336" fill-opacity="1"><g transform="translate(825.232284, 129.231976)"><g/></g></g><g fill="#ff4336" fill-opacity="1"><g transform="translate(829.634805, 129.231976)"><g><path d="M 1.183594 -3.980469 L 3.371094 -3.980469 L 3.964844 -11.261719 L 0.59375 -11.261719 Z M 0.777344 0 L 3.777344 0 L 3.777344 -2.84375 L 0.777344 -2.84375 Z M 0.777344 0 "/></g></g></g><g fill="#ffffff" fill-opacity="1"><g transform="translate(293.888943, 59.932949)"><g><path d="M 22.171875 3.105469 C 33.214844 3.105469 42.125 -5.808594 42.125 -16.851562 C 42.125 -27.890625 33.214844 -36.804688 22.171875 -36.804688 C 11.128906 -36.804688 2.21875 -27.890625 2.21875 -16.851562 C 2.21875 -5.808594 11.128906 3.105469 22.171875 3.105469 Z M 22.171875 3.105469 "/></g></g></g><g fill="#ffffff" fill-opacity="1"><g transform="translate(284.523426, 34.884447)"><g><path d="M 15.765625 2.207031 C 23.617188 2.207031 29.957031 -4.132812 29.957031 -11.984375 C 29.957031 -19.835938 23.617188 -26.171875 15.765625 -26.171875 C 7.914062 -26.171875 1.578125 -19.835938 1.578125 -11.984375 C 1.578125 -4.132812 7.914062 2.207031 15.765625 2.207031 Z M 15.765625 2.207031 "/></g></g></g><g fill="#ff4336" fill-opacity="1"><g transform="translate(328.696097, 63.113976)"><g><path d="M 21.023438 -18.1875 L 21.023438 -23.855469 L 1.792969 -23.855469 L 1.792969 0 L 9.003906 0 L 9.003906 -8.898438 L 19.660156 -8.898438 L 19.660156 -14.097656 L 9.003906 -14.097656 L 9.003906 -18.1875 Z M 21.023438 -18.1875 "/></g></g></g><g fill="#ff4336" fill-opacity="1"><g transform="translate(350.866352, 63.113976)"><g><path d="M 11.335938 -4.054688 C 9.363281 -4.054688 8.214844 -4.914062 7.855469 -7.210938 L 21.058594 -7.210938 C 21.128906 -7.570312 21.164062 -8.144531 21.164062 -8.753906 C 21.164062 -13.703125 19.050781 -18.511719 11.191406 -18.511719 C 4.054688 -18.511719 1.003906 -14.171875 1.003906 -9.003906 C 1.003906 -4.199219 3.585938 0.574219 11.191406 0.574219 C 17.792969 0.574219 20.414062 -2.117188 21.09375 -5.417969 L 14.207031 -5.417969 C 13.703125 -4.59375 12.699219 -4.054688 11.335938 -4.054688 Z M 11.300781 -13.992188 C 13.417969 -13.992188 14.3125 -12.949219 14.527344 -11.085938 L 7.890625 -11.085938 C 8.285156 -13.238281 9.328125 -13.992188 11.300781 -13.992188 Z M 11.300781 -13.992188 "/></g></g></g><g fill="#ff4336" fill-opacity="1"><g transform="translate(373.036607, 63.113976)"><g><path d="M 7.101562 0.464844 C 10.65625 0.464844 12.988281 -0.898438 13.917969 -3.625 C 13.917969 -2.117188 14.0625 -0.933594 14.242188 0 L 20.234375 0 C 20.019531 -1.398438 19.875 -3.15625 19.875 -5.238281 L 19.875 -11.800781 C 19.875 -16.144531 16.96875 -18.511719 11.050781 -18.511719 C 5.203125 -18.511719 1.722656 -15.675781 1.507812 -11.839844 L 8.285156 -11.839844 C 8.285156 -13.203125 9.183594 -13.953125 11.085938 -13.953125 C 12.808594 -13.953125 13.382812 -13.453125 13.382812 -12.554688 C 13.382812 -11.730469 13.058594 -11.335938 11.445312 -11.050781 L 7.496094 -10.367188 C 2.261719 -9.472656 1.148438 -7.570312 1.148438 -4.699219 C 1.148438 -1.578125 3.550781 0.464844 7.101562 0.464844 Z M 9.972656 -3.980469 C 8.933594 -3.980469 8.035156 -4.519531 8.035156 -5.632812 C 8.035156 -6.707031 8.574219 -7.210938 10.152344 -7.640625 L 10.691406 -7.785156 C 11.839844 -8.070312 12.519531 -8.25 13.382812 -8.859375 L 13.382812 -8.324219 C 13.382812 -5.238281 11.800781 -3.980469 9.972656 -3.980469 Z M 9.972656 -3.980469 "/></g></g></g><g fill="#ff4336" fill-opacity="1"><g transform="translate(394.632872, 63.113976)"><g><path d="M 11.050781 0 L 14.242188 0 L 14.242188 -5.558594 L 10.296875 -5.558594 L 10.296875 -12.664062 L 14.886719 -12.664062 L 14.886719 -17.9375 L 10.296875 -17.9375 L 10.296875 -22.386719 L 6.707031 -22.386719 L 3.800781 -17.613281 L 0.179688 -15.890625 L 0.179688 -12.664062 L 3.265625 -12.664062 L 3.265625 -7.640625 C 3.265625 -2.691406 5.203125 0 11.050781 0 Z M 11.050781 0 "/></g></g></g><g fill="#ff4336" fill-opacity="1"><g transform="translate(410.417517, 63.113976)"><g><path d="M 14.746094 -17.9375 L 14.746094 -9.21875 C 14.746094 -6.421875 13.488281 -5.09375 11.371094 -5.09375 C 9.253906 -5.09375 8.539062 -6.492188 8.539062 -8.429688 L 8.539062 -17.9375 L 1.507812 -17.9375 L 1.507812 -7.140625 C 1.507812 -2.4375 3.730469 0.574219 8.394531 0.574219 C 11.480469 0.574219 13.558594 -0.789062 14.746094 -3.050781 L 14.746094 0 L 21.777344 0 L 21.777344 -17.9375 Z M 14.746094 -17.9375 "/></g></g></g><g fill="#ff4336" fill-opacity="1"><g transform="translate(433.807495, 63.113976)"><g><path d="M 13.058594 -18.222656 C 10.296875 -18.222656 9.003906 -17.003906 8.394531 -14.457031 L 8.394531 -17.9375 L 1.613281 -17.9375 L 1.613281 0 L 8.644531 0 L 8.644531 -7.28125 C 8.644531 -10.476562 9.9375 -11.371094 12.269531 -11.371094 L 14.886719 -11.371094 L 14.886719 -18.222656 Z M 13.058594 -18.222656 "/></g></g></g><g fill="#ff4336" fill-opacity="1"><g transform="translate(449.197524, 63.113976)"><g><path d="M 11.335938 -4.054688 C 9.363281 -4.054688 8.214844 -4.914062 7.855469 -7.210938 L 21.058594 -7.210938 C 21.128906 -7.570312 21.164062 -8.144531 21.164062 -8.753906 C 21.164062 -13.703125 19.050781 -18.511719 11.191406 -18.511719 C 4.054688 -18.511719 1.003906 -14.171875 1.003906 -9.003906 C 1.003906 -4.199219 3.585938 0.574219 11.191406 0.574219 C 17.792969 0.574219 20.414062 -2.117188 21.09375 -5.417969 L 14.207031 -5.417969 C 13.703125 -4.59375 12.699219 -4.054688 11.335938 -4.054688 Z M 11.300781 -13.992188 C 13.417969 -13.992188 14.3125 -12.949219 14.527344 -11.085938 L 7.890625 -11.085938 C 8.285156 -13.238281 9.328125 -13.992188 11.300781 -13.992188 Z M 11.300781 -13.992188 "/></g></g></g><g fill="#ff4336" fill-opacity="1"><g transform="translate(471.367779, 63.113976)"><g><path d="M 0.644531 -5.703125 C 0.824219 -2.511719 3.265625 0.574219 10.082031 0.574219 C 17.21875 0.574219 19.265625 -2.367188 19.265625 -5.703125 C 19.265625 -9.363281 17.292969 -10.976562 13.164062 -11.335938 L 9.507812 -11.625 C 7.890625 -11.765625 7.496094 -12.339844 7.496094 -13.023438 C 7.496094 -13.882812 8.214844 -14.492188 10.042969 -14.492188 C 11.765625 -14.492188 12.628906 -13.847656 12.808594 -12.554688 L 19.050781 -12.554688 C 18.65625 -17.039062 15.03125 -18.511719 9.972656 -18.511719 C 5.128906 -18.511719 1.148438 -16.898438 1.148438 -12.339844 C 1.148438 -9.074219 3.085938 -7.175781 6.707031 -6.816406 L 10.296875 -6.457031 C 12.414062 -6.242188 12.59375 -5.488281 12.59375 -4.808594 C 12.59375 -3.945312 11.765625 -3.445312 10.152344 -3.445312 C 8.25 -3.445312 7.140625 -4.449219 6.996094 -5.703125 Z M 0.644531 -5.703125 "/></g></g></g></svg>